<svg xmlns="http://www.w3.org/2000/svg" xmlns:xlink="http://www.w3.org/1999/xlink" viewBox="0 0 1920 710" preserveAspectRatio="none">
  <defs>
    <linearGradient id="a" x1="292.68" x2="296.68" y1="279.24" y2="288.4" gradientUnits="userSpaceOnUse">
      <stop offset="0" stop-color="#c7d9eb"/>
      <stop offset="1" stop-color="#eaf3fc"/>
    </linearGradient>
    <linearGradient id="b" x1="970.42" x2="974.42" y1="522.73" y2="531.88" xlink:href="#a"/>
    <linearGradient id="c" x1="1648.14" x2="1650.75" y1="93.88" y2="99.85" xlink:href="#a"/>
    <linearGradient id="d" x1="1019.69" x2="1022.3" y1="355.17" y2="361.14" xlink:href="#a"/>
    <linearGradient id="e" x1="1882.7" x2="1885.31" y1="27.63" y2="33.6" xlink:href="#a"/>
    <linearGradient id="f" x1="229.27" x2="231.88" y1="35.63" y2="41.6" xlink:href="#a"/>
    <linearGradient id="g" x1="683.46" x2="686.07" y1="19.32" y2="25.29" xlink:href="#a"/>
    <linearGradient id="h" x1="771.43" x2="774.04" y1="316.35" y2="322.32" xlink:href="#a"/>
    <linearGradient id="i" x1="975.78" x2="978.38" y1="49.24" y2="55.21" xlink:href="#a"/>
    <linearGradient id="j" x1="1340.61" x2="1343.22" y1="170.82" y2="176.79" xlink:href="#a"/>
    <linearGradient id="k" x1="1472.63" x2="1473.76" y1="195.91" y2="198.5" xlink:href="#a"/>
    <linearGradient id="l" x1="1402.87" x2="1404" y1="253.23" y2="255.81" xlink:href="#a"/>
    <linearGradient id="m" x1="803.19" x2="804.32" y1="206.18" y2="208.77" xlink:href="#a"/>
    <linearGradient id="n" x1="1837.82" x2="1838.95" y1="332.33" y2="334.92" xlink:href="#a"/>
    <linearGradient id="o" x1="959.43" x2="960.57" y1="186.61" y2="189.2" xlink:href="#a"/>
    <linearGradient id="p" x1="1256.34" x2="1257.47" y1="344.58" y2="347.17" xlink:href="#a"/>
    <linearGradient id="q" x1="1197.35" x2="1198.48" y1="291.3" y2="293.88" xlink:href="#a"/>
    <linearGradient id="r" x1="670.23" x2="671.36" y1="168.55" y2="171.14" xlink:href="#a"/>
    <linearGradient id="s" x1="1758.29" x2="1759.42" y1="176.67" y2="179.26" xlink:href="#a"/>
    <linearGradient id="t" x1="1175.72" x2="1176.85" y1="71.24" y2="73.82" xlink:href="#a"/>
    <linearGradient id="u" x1="1525.78" x2="1526.91" y1="25.17" y2="27.75" xlink:href="#a"/>
    <linearGradient id="v" x1="1451.81" x2="1452.94" y1="41.48" y2="44.06" xlink:href="#a"/>
    <linearGradient id="w" x1="1550.17" x2="1551.3" y1="579.76" y2="582.35" xlink:href="#a"/>
    <linearGradient id="x" x1="1500.1" x2="1501.23" y1="468.62" y2="471.21" xlink:href="#a"/>
    <linearGradient id="y" x1="1606.73" x2="1607.86" y1="556.68" y2="559.26" xlink:href="#a"/>
    <linearGradient id="z" x1="386.49" x2="387.62" y1="157.89" y2="160.47" xlink:href="#a"/>
    <linearGradient id="A" x1="1140.87" x2="1144.88" y1="517.81" y2="526.97" xlink:href="#a"/>
    <linearGradient id="B" x1="920.97" x2="923.57" y1="676.72" y2="682.69" xlink:href="#a"/>
    <linearGradient id="C" x1="799.68" x2="802.29" y1="514.12" y2="520.09" xlink:href="#a"/>
    <linearGradient id="D" x1="1315.45" x2="1316.58" y1="501.17" y2="503.76" xlink:href="#a"/>
    <linearGradient id="E" x1="1177.12" x2="1178.25" y1="595.84" y2="598.43" xlink:href="#a"/>
    <linearGradient id="F" x1="87.5" x2="91.5" y1="428.04" y2="437.2" xlink:href="#a"/>
    <linearGradient id="G" x1="89.32" x2="91.93" y1="686.72" y2="692.69" xlink:href="#a"/>
    <linearGradient id="H" x1="363.1" x2="365.71" y1="630.38" y2="636.35" xlink:href="#a"/>
    <linearGradient id="I" x1="205.77" x2="206.9" y1="440.69" y2="443.27" xlink:href="#a"/>
    <linearGradient id="J" x1="78.65" x2="79.78" y1="577.75" y2="580.34" xlink:href="#a"/>
    <linearGradient id="K" x1="297.6" x2="299.58" y1="499.88" y2="504.43" xlink:href="#a"/>
    <linearGradient id="L" x1="1337.16" x2="1339.15" y1="633.29" y2="637.83" xlink:href="#a"/>
    <linearGradient id="M" x1="640.16" x2="642.76" y1="610.11" y2="616.08" xlink:href="#a"/>
    <linearGradient id="N" x1="830.81" x2="831.6" y1="573.2" y2="575.01" xlink:href="#a"/>
    <linearGradient id="O" x1="757.28" x2="758.41" y1="410.4" y2="412.99" xlink:href="#a"/>
    <linearGradient id="P" x1="841.75" x2="842.88" y1="337.02" y2="339.61" xlink:href="#a"/>
    <linearGradient id="Q" x1="574.65" x2="576.64" y1="479.61" y2="484.16" xlink:href="#a"/>
    <linearGradient id="R" x1="661.22" x2="663.21" y1="289.92" y2="294.47" xlink:href="#a"/>
    <linearGradient id="S" x1="133.66" x2="135.65" y1="140.05" y2="144.6" xlink:href="#a"/>
    <linearGradient id="T" x1="359.79" x2="365.19" y1=".79" y2="13.15" xlink:href="#a"/>
    <linearGradient id="U" x1="376.33" x2="354.06" y1="5.08" y2="20.03" xlink:href="#a"/>
    <linearGradient id="V" x1="351.56" x2="355.1" y1="12.87" y2="20.05" xlink:href="#a"/>
    <linearGradient id="W" x1="432.73" x2="448.15" y1="333.45" y2="324.59" xlink:href="#a"/>
    <linearGradient id="X" x1="410.08" x2="420.11" y1="324.45" y2="401.66" xlink:href="#a"/>
    <linearGradient id="Y" x1="492.34" x2="389.83" y1="335.73" y2="411.64" xlink:href="#a"/>
    <linearGradient id="Z" x1="332.77" x2="422.63" y1="354.3" y2="425.41" xlink:href="#a"/>
    <linearGradient id="aa" x1="472.45" x2="490.03" y1="356.43" y2="346.33" xlink:href="#a"/>
    <linearGradient id="ab" x1="1788.72" x2="1804.14" y1="500.13" y2="491.28" xlink:href="#a"/>
    <linearGradient id="ac" x1="1766.07" x2="1776.1" y1="491.13" y2="568.34" xlink:href="#a"/>
    <linearGradient id="ad" x1="1848.33" x2="1745.82" y1="502.42" y2="578.32" xlink:href="#a"/>
    <linearGradient id="ae" x1="1688.76" x2="1778.63" y1="520.98" y2="592.09" xlink:href="#a"/>
    <linearGradient id="af" x1="1828.44" x2="1846.02" y1="523.11" y2="513.02" xlink:href="#a"/>
    <linearGradient id="ag" x1="275.32" x2="302.55" y1="612.68" y2="597.04" xlink:href="#a"/>
    <linearGradient id="ah" x1="277.52" x2="274.9" y1="593.66" y2="661.28" xlink:href="#a"/>
    <linearGradient id="ai" x1="322.55" x2="265.84" y1="619.93" y2="677.07" xlink:href="#a"/>
    <linearGradient id="aj" x1="231.14" x2="321.88" y1="615.46" y2="728.44" xlink:href="#a"/>
    <linearGradient id="ak" x1="314.82" x2="337.1" y1="635.79" y2="622.99" xlink:href="#a"/>
    <linearGradient id="al" x1="1582.64" x2="1603.49" y1="257.62" y2="245.65" xlink:href="#a"/>
    <linearGradient id="am" x1="1562.62" x2="1500.24" y1="218.33" y2="395.44" xlink:href="#a"/>
    <linearGradient id="an" x1="1636.89" x2="1429.25" y1="267.79" y2="410.44" xlink:href="#a"/>
    <linearGradient id="ao" x1="1423.29" x2="1474.76" y1="321.28" y2="378.42" xlink:href="#a"/>
    <linearGradient id="ap" x1="1626.37" x2="1650.51" y1="282.87" y2="269.01" xlink:href="#a"/>
    <linearGradient id="aq" x1="272.1" x2="291.28" y1="104.31" y2="93.3" xlink:href="#a"/>
    <linearGradient id="ar" x1="273.65" x2="271.8" y1="90.92" y2="138.54" xlink:href="#a"/>
    <linearGradient id="as" x1="305.36" x2="265.42" y1="109.41" y2="149.66" xlink:href="#a"/>
    <linearGradient id="at" x1="240.98" x2="304.89" y1="106.27" y2="185.84" xlink:href="#a"/>
    <linearGradient id="au" x1="299.92" x2="315.6" y1="120.58" y2="111.58" xlink:href="#a"/>
    <linearGradient id="av" x1="57.75" x2="63.2" y1="61.85" y2="58.72" xlink:href="#a"/>
    <linearGradient id="aw" x1="49.75" x2="53.29" y1="58.67" y2="85.95" xlink:href="#a"/>
    <linearGradient id="ax" x1="78.81" x2="42.59" y1="62.65" y2="89.47" xlink:href="#a"/>
    <linearGradient id="ay" x1="22.43" x2="54.18" y1="69.21" y2="94.34" xlink:href="#a"/>
    <linearGradient id="az" x1="71.78" x2="77.99" y1="69.96" y2="66.4" xlink:href="#a"/>
    <linearGradient id="aA" x1="1738.19" x2="1712.54" y1="317.14" y2="389.96" xlink:href="#a"/>
    <linearGradient id="aB" x1="1768.73" x2="1683.35" y1="337.48" y2="396.13" xlink:href="#a"/>
    <linearGradient id="aC" x1="1680.9" x2="1702.07" y1="359.47" y2="382.97" xlink:href="#a"/>
    <linearGradient id="aD" x1="1764.41" x2="1774.33" y1="343.68" y2="337.98" xlink:href="#a"/>
    <linearGradient id="aE" x1="1746.42" x2="1755" y1="333.3" y2="328.37" xlink:href="#a"/>
    <linearGradient id="aF" x1="186.83" x2="195.68" y1="566.17" y2="561.09" xlink:href="#a"/>
    <linearGradient id="aG" x1="187.55" x2="186.7" y1="559.99" y2="581.96" xlink:href="#a"/>
    <linearGradient id="aH" x1="202.18" x2="183.75" y1="568.52" y2="587.09" xlink:href="#a"/>
    <linearGradient id="aI" x1="172.48" x2="201.96" y1="567.07" y2="603.78" xlink:href="#a"/>
    <linearGradient id="aJ" x1="199.67" x2="206.91" y1="573.68" y2="569.52" xlink:href="#a"/>
    <linearGradient id="aK" x1="1577.37" x2="1581.98" y1="463.17" y2="498.63" xlink:href="#a"/>
    <linearGradient id="aL" x1="1615.16" x2="1568.07" y1="468.35" y2="503.21" xlink:href="#a"/>
    <linearGradient id="aM" x1="1541.86" x2="1583.14" y1="476.88" y2="509.54" xlink:href="#a"/>
    <linearGradient id="aN" x1="1606.02" x2="1614.09" y1="477.85" y2="473.22" xlink:href="#a"/>
    <linearGradient id="aO" x1="1587.78" x2="1594.86" y1="467.3" y2="463.23" xlink:href="#a"/>
    <linearGradient id="aP" x1="597.55" x2="602.15" y1="7.04" y2="42.5" xlink:href="#a"/>
    <linearGradient id="aQ" x1="635.33" x2="588.24" y1="12.22" y2="47.09" xlink:href="#a"/>
    <linearGradient id="aR" x1="562.04" x2="603.31" y1="20.75" y2="53.41" xlink:href="#a"/>
    <linearGradient id="aS" x1="626.19" x2="634.27" y1="21.73" y2="17.09" xlink:href="#a"/>
    <linearGradient id="aT" x1="128.92" x2="156.15" y1="287.86" y2="272.22" xlink:href="#a"/>
    <linearGradient id="aU" x1="131.11" x2="128.5" y1="268.84" y2="336.46" xlink:href="#a"/>
    <linearGradient id="aV" x1="176.14" x2="119.43" y1="295.11" y2="352.25" xlink:href="#a"/>
    <linearGradient id="aW" x1="84.73" x2="175.47" y1="290.64" y2="403.62" xlink:href="#a"/>
    <linearGradient id="aX" x1="168.41" x2="190.69" y1="310.97" y2="298.17" xlink:href="#a"/>
    <linearGradient id="aY" x1="1743.34" x2="1770.57" y1="26.53" y2="10.9" xlink:href="#a"/>
    <linearGradient id="aZ" x1="1794.63" x2="1768.46" y1="22.04" y2="104.92" xlink:href="#a"/>
    <linearGradient id="ba" x1="1858.13" x2="1819.74" y1="80.87" y2="120.13" xlink:href="#a"/>
    <linearGradient id="bb" x1="1728.95" x2="1815.32" y1="19.02" y2="189.15" xlink:href="#a"/>
    <linearGradient id="bc" x1="1856.19" x2="1893.53" y1="91.44" y2="69.99" xlink:href="#a"/>
    <linearGradient id="bd" x1="960.55" x2="960.55" y1="2.68" y2="694.08" gradientUnits="userSpaceOnUse">
      <stop offset="0" stop-color="#fff"/>
      <stop offset=".01" stop-color="#fff" stop-opacity=".93"/>
      <stop offset=".05" stop-color="#fff" stop-opacity=".74"/>
      <stop offset=".09" stop-color="#fff" stop-opacity=".56"/>
      <stop offset=".13" stop-color="#fff" stop-opacity=".41"/>
      <stop offset=".17" stop-color="#fff" stop-opacity=".28"/>
      <stop offset=".21" stop-color="#fff" stop-opacity=".18"/>
      <stop offset=".26" stop-color="#fff" stop-opacity=".1"/>
      <stop offset=".32" stop-color="#fff" stop-opacity=".04"/>
      <stop offset=".39" stop-color="#fff" stop-opacity=".01"/>
      <stop offset=".5" stop-color="#fff" stop-opacity="0"/>
      <stop offset=".61" stop-color="#fff" stop-opacity=".01"/>
      <stop offset=".68" stop-color="#fff" stop-opacity=".04"/>
      <stop offset=".74" stop-color="#fff" stop-opacity=".1"/>
      <stop offset=".79" stop-color="#fff" stop-opacity=".18"/>
      <stop offset=".83" stop-color="#fff" stop-opacity=".28"/>
      <stop offset=".87" stop-color="#fff" stop-opacity=".41"/>
      <stop offset=".91" stop-color="#fff" stop-opacity=".56"/>
      <stop offset=".95" stop-color="#fff" stop-opacity=".74"/>
      <stop offset=".99" stop-color="#fff" stop-opacity=".93"/>
      <stop offset="1" stop-color="#fff"/>
    </linearGradient>
  </defs>
  <g data-name="Vrstva 2">
    <g data-name="Izolovaný režim">
      <g opacity=".7">
        <path fill="#f1f8ff" d="M0 0h1921.09v709H0z"/>
        <path fill="url(#a)" d="M260.39 303.75c2.81-1.75 5.64-3.45 8.46-5.18l8.51-5.1c5.67-3.39 11.38-6.72 17.09-10.05s11.44-6.63 17.19-9.87l8.64-4.87c2.9-1.6 5.78-3.22 8.69-4.78-2.8 1.75-5.64 3.45-8.46 5.18l-8.5 5.09q-8.52 5.08-17.09 10.06c-5.72 3.31-11.44 6.62-17.2 9.86l-8.64 4.91c-2.9 1.56-5.78 3.18-8.69 4.75z"/>
        <path fill="url(#b)" d="M938.13 547.23c2.81-1.75 5.64-3.45 8.46-5.18l8.51-5.05c5.67-3.4 11.38-6.73 17.09-10.06s11.44-6.62 17.19-9.87l8.64-4.87c2.9-1.59 5.78-3.21 8.69-4.78-2.81 1.75-5.64 3.45-8.46 5.18l-8.5 5.09c-5.68 3.4-11.38 6.73-17.09 10.06s-11.44 6.62-17.2 9.87l-8.64 4.87c-2.9 1.51-5.82 3.17-8.69 4.74z"/>
        <path fill="url(#c)" d="M1628.32 109.14q5.15-3.31 10.38-6.46c1.74-1.06 3.49-2.09 5.24-3.13l5.27-3.09 5.29-3c1.78-1 3.54-2 5.32-3q5.33-3 10.75-5.82-5.14 3.3-10.38 6.45c-1.74 1.06-3.49 2.09-5.24 3.14l-5.27 3.09-5.29 3c-1.78 1-3.54 2-5.32 3q-5.34 2.99-10.75 5.82z"/>
        <path fill="url(#d)" d="M999.87 370.43q5.14-3.3 10.38-6.46c1.74-1.06 3.49-2.09 5.24-3.13l5.27-3.09 5.29-3.05c1.78-1 3.54-2 5.32-3q5.33-3 10.75-5.82-5.14 3.3-10.38 6.45c-1.74 1.06-3.49 2.09-5.24 3.14l-5.27 3.09-5.29 3c-1.78 1-3.54 2-5.32 3q-5.34 3.04-10.75 5.87z"/>
        <path fill="url(#e)" d="M1862.88 42.89q5.14-3.3 10.38-6.45c1.74-1.06 3.49-2.09 5.24-3.14l5.27-3.09 5.29-3.05c1.78-1 3.54-2 5.32-3q5.32-3 10.75-5.82-5.14 3.32-10.38 6.46c-1.74 1.06-3.49 2.09-5.24 3.13l-5.27 3.07-5.24 3.07c-1.78 1-3.54 2-5.32 3q-5.39 2.99-10.8 5.82z"/>
        <path fill="url(#f)" d="M209.45 50.89q5.15-3.3 10.38-6.45c1.74-1.06 3.49-2.1 5.24-3.14l5.27-3.09 5.29-3.05c1.78-1 3.54-2 5.32-3q5.33-3 10.75-5.82-5.14 3.3-10.38 6.45c-1.74 1.06-3.49 2.09-5.24 3.14L230.81 39l-5.29 3c-1.78 1-3.54 2-5.32 3q-5.34 3.06-10.75 5.89z"/>
        <path fill="url(#g)" d="M663.64 34.58q5.15-3.3 10.38-6.46c1.74-1.06 3.5-2.09 5.24-3.13l5.27-3.09 5.29-3c1.78-1 3.54-2 5.33-3q5.33-3 10.74-5.82-5.14 3.3-10.38 6.45c-1.74 1.06-3.49 2.09-5.24 3.14L685 22.71l-5.29 3c-1.77 1-3.54 2-5.32 3q-5.32 3.03-10.75 5.87z"/>
        <path fill="url(#h)" d="M751.61 331.61q5.14-3.3 10.38-6.45c1.74-1.06 3.5-2.09 5.24-3.14l5.27-3.09 5.3-3.05c1.77-1 3.53-2 5.32-3q5.32-3 10.74-5.82-5.15 3.3-10.38 6.45c-1.73 1.06-3.49 2.09-5.24 3.14l-5.24 3.09-5.29 3.05c-1.77 1-3.54 2-5.32 3q-5.39 2.99-10.78 5.82z"/>
        <path fill="url(#i)" d="M956 64.5q5.13-3.3 10.37-6.45c1.74-1.06 3.5-2.09 5.25-3.14l5.26-3.09 5.3-3c1.77-1 3.54-2 5.32-3q5.32-3 10.74-5.82-5.15 3.3-10.37 6.45c-1.74 1.06-3.5 2.1-5.25 3.14l-5.26 3.09-5.3 3c-1.77 1-3.54 2-5.32 3q-5.36 2.99-10.74 5.82z"/>
        <path fill="url(#j)" d="M1320.79 186.09q5.14-3.32 10.38-6.46c1.74-1.06 3.49-2.09 5.24-3.13l5.27-3.1 5.29-3c1.77-1 3.54-2 5.32-3q5.32-3 10.75-5.82-5.14 3.32-10.38 6.46c-1.74 1.06-3.49 2.09-5.24 3.13l-5.27 3.09-5.29 3c-1.78 1-3.54 2-5.33 3q-5.32 3-10.74 5.83z"/>
        <path fill="url(#k)" d="M1466 201.36c1.1-.86 2.24-1.64 3.39-2.39.58-.39 1.17-.74 1.75-1.11l1.78-1.06c1.19-.7 2.4-1.36 3.63-2s2.47-1.24 3.76-1.77c-1.09.87-2.24 1.65-3.39 2.4s-2.34 1.48-3.53 2.17l-1.8 1c-.61.33-1.21.67-1.83 1a38.34 38.34 0 0 1-3.76 1.76z"/>
        <path fill="url(#l)" d="M1396.28 258.68c1.1-.86 2.24-1.64 3.4-2.4.57-.38 1.16-.74 1.75-1.1l1.77-1.07c1.19-.69 2.4-1.35 3.63-2s2.47-1.23 3.76-1.76c-1.09.86-2.23 1.64-3.39 2.4s-2.33 1.47-3.53 2.16l-1.8 1c-.61.33-1.21.66-1.83 1-1.22.64-2.47 1.24-3.76 1.77z"/>
        <path fill="url(#m)" d="M796.6 211.63c1.09-.86 2.23-1.64 3.39-2.39.57-.38 1.17-.74 1.75-1.11l1.77-1.06c1.2-.69 2.41-1.35 3.63-2s2.47-1.24 3.76-1.76c-1.09.86-2.23 1.64-3.39 2.39s-2.33 1.48-3.52 2.17l-1.81 1c-.6.32-1.21.66-1.82 1-1.23.63-2.47 1.24-3.76 1.76z"/>
        <path fill="url(#n)" d="M1831.23 337.79c1.1-.87 2.24-1.65 3.4-2.4.57-.38 1.16-.74 1.75-1.11l1.77-1.06c1.19-.69 2.4-1.35 3.63-2s2.47-1.24 3.76-1.76c-1.09.86-2.23 1.64-3.39 2.4s-2.33 1.47-3.53 2.16l-1.8 1c-.61.32-1.21.66-1.83 1-1.22.64-2.47 1.24-3.76 1.77z"/>
        <path fill="url(#o)" d="M952.85 192.06c1.09-.86 2.23-1.64 3.39-2.39.57-.39 1.17-.74 1.75-1.11l1.77-1.06c1.2-.7 2.41-1.36 3.63-2s2.47-1.24 3.76-1.76c-1.09.86-2.23 1.64-3.39 2.39s-2.33 1.48-3.52 2.17l-1.81 1c-.61.32-1.21.66-1.82 1-1.23.63-2.47 1.24-3.76 1.76z"/>
        <path fill="url(#p)" d="M1249.75 350c1.1-.86 2.24-1.64 3.4-2.39.57-.38 1.16-.74 1.75-1.11l1.77-1.06c1.19-.7 2.4-1.36 3.63-2s2.47-1.24 3.76-1.76c-1.09.86-2.23 1.64-3.39 2.39s-2.33 1.48-3.53 2.17l-1.8 1c-.61.32-1.21.66-1.83 1-1.22.66-2.51 1.27-3.76 1.76z"/>
        <path fill="url(#q)" d="M1190.76 296.75c1.09-.86 2.23-1.64 3.39-2.4.57-.38 1.17-.74 1.75-1.1l1.77-1.07c1.2-.69 2.41-1.35 3.63-2s2.47-1.23 3.76-1.76c-1.09.86-2.23 1.64-3.39 2.4s-2.33 1.47-3.52 2.16l-1.81 1c-.6.33-1.21.66-1.82 1-1.23.64-2.47 1.24-3.76 1.77z"/>
        <path fill="url(#r)" d="M663.64 174c1.1-.86 2.24-1.64 3.4-2.39.57-.39 1.16-.74 1.75-1.11l1.77-1.06c1.19-.7 2.4-1.36 3.63-2s2.47-1.24 3.76-1.76c-1.09.86-2.23 1.64-3.39 2.39s-2.33 1.48-3.53 2.17l-1.8 1c-.61.32-1.21.66-1.83 1-1.22.63-2.47 1.24-3.76 1.76z"/>
        <path fill="url(#s)" d="M1751.7 182.12c1.1-.86 2.24-1.64 3.4-2.39.57-.38 1.16-.74 1.75-1.11l1.77-1.06c1.19-.69 2.41-1.35 3.63-2s2.47-1.24 3.76-1.76c-1.09.86-2.23 1.64-3.39 2.39s-2.33 1.48-3.53 2.17l-1.8 1c-.61.32-1.21.66-1.83 1-1.22.64-2.46 1.24-3.76 1.76z"/>
        <path fill="url(#t)" d="M1169.13 76.69c1.09-.86 2.23-1.64 3.39-2.4.58-.38 1.17-.74 1.75-1.1l1.78-1.07c1.19-.69 2.4-1.35 3.63-2s2.47-1.23 3.76-1.76c-1.1.86-2.24 1.64-3.4 2.4s-2.33 1.47-3.52 2.16l-1.8 1c-.61.33-1.21.66-1.83 1-1.23.64-2.47 1.24-3.76 1.77z"/>
        <path fill="url(#u)" d="M1519.19 30.62c1.1-.86 2.24-1.64 3.4-2.4.57-.38 1.16-.74 1.75-1.1l1.77-1.07c1.19-.69 2.4-1.35 3.63-2s2.47-1.23 3.76-1.76c-1.09.86-2.23 1.65-3.39 2.4s-2.33 1.47-3.53 2.17l-1.8 1c-.61.33-1.21.67-1.83 1a47.8 47.8 0 0 1-3.76 1.76z"/>
        <path fill="url(#v)" d="M1445.22 46.93c1.09-.86 2.23-1.64 3.39-2.4.58-.38 1.17-.73 1.75-1.1l1.78-1.06c1.19-.7 2.4-1.36 3.63-2s2.47-1.24 3.76-1.77c-1.1.87-2.24 1.65-3.4 2.4s-2.33 1.48-3.52 2.17l-1.8 1c-.61.33-1.21.67-1.83 1-1.23.63-2.47 1.23-3.76 1.76z"/>
        <path fill="url(#w)" d="M1543.58 585.21c1.1-.86 2.24-1.64 3.4-2.39.57-.39 1.16-.74 1.75-1.11l1.77-1.06c1.19-.7 2.41-1.36 3.63-2s2.47-1.24 3.76-1.77c-1.09.87-2.23 1.65-3.39 2.4s-2.33 1.48-3.53 2.17l-1.8 1c-.61.33-1.21.67-1.83 1a47.8 47.8 0 0 1-3.76 1.76z"/>
        <path fill="url(#x)" d="M1493.51 474.07c1.1-.86 2.24-1.64 3.4-2.39.57-.39 1.16-.74 1.75-1.11l1.77-1.06c1.19-.7 2.41-1.36 3.63-2s2.47-1.24 3.76-1.77c-1.09.87-2.23 1.65-3.39 2.4s-2.33 1.48-3.53 2.17l-1.8 1c-.61.33-1.21.67-1.83 1a47.8 47.8 0 0 1-3.76 1.76z"/>
        <path fill="url(#y)" d="M1600.14 562.13c1.1-.86 2.24-1.64 3.4-2.4.57-.38 1.16-.73 1.75-1.1l1.77-1.06c1.19-.7 2.4-1.36 3.63-2s2.47-1.24 3.76-1.77c-1.09.87-2.23 1.65-3.39 2.4s-2.33 1.48-3.53 2.17l-1.8 1c-.61.33-1.21.67-1.83 1a47.8 47.8 0 0 1-3.76 1.76z"/>
        <path fill="url(#z)" d="M379.91 163.34c1.09-.86 2.23-1.64 3.39-2.4.57-.38 1.17-.74 1.75-1.1l1.77-1.07c1.2-.69 2.41-1.35 3.63-2s2.47-1.23 3.76-1.76c-1.09.86-2.23 1.65-3.39 2.4s-2.33 1.47-3.52 2.17l-1.81 1c-.61.33-1.21.66-1.82 1-1.23.63-2.47 1.23-3.76 1.76z"/>
        <path fill="url(#A)" d="M1108.59 542.32c2.8-1.75 5.64-3.45 8.45-5.18l8.51-5.1c5.67-3.39 11.38-6.72 17.09-10s11.44-6.63 17.2-9.87l8.64-4.87c2.89-1.59 5.77-3.22 8.68-4.78-2.8 1.75-5.63 3.45-8.45 5.18l-8.51 5.09c-5.67 3.4-11.38 6.73-17.09 10.06s-11.44 6.62-17.2 9.87l-8.64 4.86c-2.89 1.55-5.77 3.17-8.68 4.74z"/>
        <path fill="url(#B)" d="M901.15 692q5.15-3.3 10.38-6.45c1.73-1.06 3.49-2.09 5.24-3.14l5.23-3.11 5.29-3c1.77-1 3.54-2 5.32-3q5.33-3 10.75-5.82-5.14 3.32-10.38 6.46c-1.74 1.06-3.5 2.09-5.24 3.13l-5.27 3.09-5.3 3c-1.77 1-3.54 2-5.32 3a390.32 390.32 0 0 1-10.7 5.84z"/>
        <path fill="url(#C)" d="M779.86 529.38q5.14-3.32 10.38-6.46c1.74-1.06 3.49-2.09 5.24-3.13l5.27-3.09 5.29-3.05c1.77-1 3.54-2 5.32-3q5.32-3 10.75-5.82-5.15 3.3-10.38 6.45c-1.74 1.06-3.5 2.09-5.24 3.14l-5.27 3.09-5.3 3c-1.77 1-3.53 2-5.32 3q-5.33 3.03-10.74 5.87z"/>
        <path fill="url(#D)" d="M1308.86 506.62c1.09-.86 2.24-1.64 3.39-2.39.58-.38 1.17-.74 1.75-1.11l1.78-1.06c1.19-.69 2.4-1.36 3.63-2s2.47-1.24 3.76-1.76c-1.1.86-2.24 1.64-3.39 2.39s-2.34 1.48-3.53 2.17l-1.8 1c-.61.32-1.21.66-1.83 1-1.23.63-2.47 1.24-3.76 1.76z"/>
        <path fill="url(#E)" d="M1170.53 601.29c1.1-.86 2.24-1.64 3.4-2.39.57-.39 1.16-.74 1.74-1.11l1.78-1.06c1.19-.7 2.4-1.36 3.63-2s2.47-1.24 3.76-1.76c-1.09.86-2.23 1.64-3.39 2.39s-2.33 1.48-3.53 2.17l-1.8 1c-.61.32-1.21.66-1.83 1-1.22.63-2.47 1.24-3.76 1.76z"/>
        <path fill="url(#F)" d="M55.22 452.55c2.8-1.75 5.63-3.45 8.45-5.18l8.51-5.09c5.67-3.4 11.38-6.73 17.09-10.06s11.44-6.62 17.2-9.87l8.63-4.87c2.9-1.59 5.78-3.21 8.69-4.78-2.8 1.75-5.64 3.45-8.45 5.18l-8.51 5.12c-5.67 3.4-11.38 6.73-17.09 10.06s-11.44 6.62-17.2 9.87l-8.64 4.87c-2.9 1.56-5.77 3.2-8.68 4.75z"/>
        <path fill="url(#G)" d="M69.5 702q5.15-3.3 10.38-6.45c1.73-1.06 3.49-2.1 5.24-3.14l5.27-3.09 5.29-3c1.77-1 3.54-2 5.32-3q5.32-3 10.75-5.82-5.15 3.3-10.38 6.45c-1.74 1.06-3.5 2.09-5.24 3.14l-5.27 3.09-5.3 3c-1.77 1-3.54 2-5.32 3q-5.33 2.97-10.74 5.82z"/>
        <path fill="url(#H)" d="M343.28 645.64q5.14-3.3 10.38-6.45c1.74-1.06 3.49-2.09 5.24-3.14l5.27-3.09 5.29-3.05c1.78-1 3.54-2 5.32-3q5.34-3 10.75-5.82-5.14 3.3-10.38 6.45c-1.74 1.06-3.49 2.09-5.24 3.14l-5.27 3.09-5.29 3.05c-1.78 1-3.54 2-5.32 3q-5.32 2.98-10.75 5.82z"/>
        <path fill="url(#I)" d="M199.18 446.14c1.09-.86 2.23-1.64 3.39-2.4.58-.38 1.17-.74 1.75-1.1l1.78-1.07c1.19-.69 2.4-1.35 3.62-2s2.48-1.23 3.77-1.76c-1.1.86-2.24 1.64-3.4 2.4s-2.33 1.47-3.52 2.16l-1.8 1c-.61.33-1.21.66-1.83 1-1.23.63-2.47 1.24-3.76 1.77z"/>
        <path fill="url(#J)" d="M72.06 583.2c1.1-.86 2.24-1.64 3.4-2.39.57-.39 1.16-.74 1.75-1.11l1.79-1.06c1.19-.7 2.4-1.36 3.63-2s2.47-1.24 3.76-1.77c-1.09.87-2.23 1.65-3.39 2.4s-2.33 1.48-3.53 2.17l-1.8 1c-.61.32-1.21.66-1.83 1-1.24.63-2.49 1.24-3.78 1.76z"/>
        <path fill="url(#K)" d="M283.34 511c2.45-1.65 4.94-3.21 7.44-4.75 1.25-.77 2.52-1.52 3.78-2.28l3.79-2.24 3.83-2.19c1.28-.72 2.56-1.45 3.85-2.15 2.58-1.42 5.17-2.8 7.81-4.11-2.45 1.64-4.94 3.21-7.44 4.74-1.25.78-2.52 1.53-3.78 2.29l-3.79 2.23-3.83 2.2c-1.28.71-2.56 1.44-3.85 2.14-2.58 1.44-5.15 2.83-7.81 4.12z"/>
        <path fill="url(#L)" d="M1322.91 644.42c2.44-1.65 4.93-3.21 7.44-4.75 1.25-.77 2.51-1.52 3.77-2.28l3.8-2.24 3.83-2.19c1.28-.72 2.55-1.45 3.85-2.15 2.57-1.42 5.16-2.8 7.8-4.11-2.44 1.64-4.93 3.21-7.44 4.74-1.24.78-2.51 1.53-3.77 2.29l-3.8 2.23-3.82 2.2c-1.29.71-2.56 1.44-3.85 2.14-2.58 1.42-5.17 2.81-7.81 4.12z"/>
        <path fill="url(#M)" d="M620.34 625.37c3.43-2.2 6.89-4.36 10.37-6.45 1.74-1.07 3.5-2.1 5.25-3.14l5.26-3.09 5.3-3.05c1.77-1 3.54-2 5.32-3q5.32-3 10.74-5.82-5.13 3.3-10.37 6.45c-1.74 1.06-3.5 2.09-5.25 3.14l-5.26 3.09-5.3 3c-1.77 1-3.54 2-5.32 3q-5.33 3.04-10.74 5.87z"/>
        <path fill="url(#N)" d="M827.24 576.41a15.43 15.43 0 0 1 1.8-1.47c.63-.45 1.27-.86 1.93-1.24a21.71 21.71 0 0 1 2-1.06 16.1 16.1 0 0 1 2.16-.84 13.69 13.69 0 0 1-1.79 1.47c-.63.45-1.27.86-1.93 1.24s-1.34.74-2 1.06a15.73 15.73 0 0 1-2.17.84z"/>
        <path fill="url(#O)" d="M750.69 415.85c1.09-.86 2.23-1.64 3.39-2.39.57-.38 1.17-.74 1.75-1.11l1.78-1.06c1.19-.7 2.4-1.36 3.62-2s2.47-1.24 3.77-1.76c-1.1.86-2.24 1.64-3.4 2.39s-2.33 1.48-3.52 2.17l-1.81 1c-.6.32-1.21.66-1.82 1-1.23.63-2.45 1.24-3.76 1.76z"/>
        <path fill="url(#P)" d="M835.16 342.47c1.1-.86 2.24-1.64 3.4-2.39.57-.39 1.16-.74 1.75-1.11l1.77-1.06c1.19-.7 2.41-1.36 3.63-2s2.47-1.24 3.76-1.76c-1.09.86-2.23 1.64-3.39 2.39s-2.33 1.48-3.53 2.17l-1.8 1c-.61.32-1.21.66-1.83 1-1.22.63-2.47 1.29-3.76 1.76z"/>
        <path fill="url(#Q)" d="M560.4 490.75c2.44-1.65 4.93-3.21 7.44-4.75 1.25-.78 2.51-1.52 3.77-2.28l3.8-2.24 3.82-2.19c1.29-.72 2.56-1.45 3.85-2.15 2.58-1.42 5.17-2.81 7.81-4.12-2.44 1.65-4.93 3.22-7.44 4.75-1.25.78-2.51 1.52-3.77 2.28l-3.8 2.24-3.82 2.19c-1.29.72-2.56 1.45-3.86 2.15-2.57 1.42-5.2 2.81-7.8 4.12z"/>
        <path fill="url(#R)" d="M647 301.05c2.45-1.64 4.94-3.2 7.44-4.74 1.25-.78 2.52-1.52 3.78-2.28l3.8-2.24 3.82-2.2c1.28-.71 2.56-1.44 3.85-2.14 2.58-1.42 5.17-2.81 7.81-4.12-2.44 1.65-4.93 3.21-7.44 4.75-1.25.78-2.52 1.52-3.77 2.28l-3.8 2.24-3.83 2.19c-1.28.72-2.56 1.45-3.85 2.15-2.61 1.42-5.21 2.81-7.81 4.11z"/>
        <path fill="url(#S)" d="M119.41 151.19c2.44-1.65 4.93-3.21 7.44-4.75 1.25-.78 2.51-1.52 3.77-2.28l3.8-2.24 3.82-2.19c1.29-.72 2.56-1.45 3.85-2.15 2.58-1.42 5.17-2.81 7.81-4.12-2.44 1.65-4.93 3.21-7.44 4.75-1.25.78-2.51 1.52-3.77 2.28l-3.8 2.24-3.83 2.19c-1.28.72-2.55 1.45-3.85 2.15-2.57 1.42-5.21 2.81-7.8 4.12z"/>
        <path fill="url(#T)" d="M377.06 5.06l-20.94 12.17-6.08-3.51 20.95-12.17 6.07 3.51z"/>
        <path fill="url(#U)" d="M377.06 5.06v.95l-20.94 12.17v-.95l20.94-12.17z"/>
        <path fill="url(#V)" d="M356.12 17.23v.95l-6.08-3.51v-.95l6.08 3.51z"/>
        <path fill="url(#W)" d="M433.67 336.24a54 54 0 0 1 8.44-6.25c1.36-.88 17.57-11 17.57-11s-15.59 7.56-17.91 8.8a18 18 0 0 1-8.08 1.8z" opacity=".5"/>
        <path fill="url(#X)" d="M473.38 352.48l-76.81 44.63-39.69-22.91 76.81-44.64 39.69 22.92z"/>
        <path fill="url(#Y)" d="M473.38 352.48l-.02 6.84-76.81 44.63.02-6.84 76.81-44.63z"/>
        <path fill="url(#Z)" d="M396.57 397.11l-.02 6.84-39.68-22.91.01-6.84 39.69 22.91z"/>
        <path fill="url(#aa)" d="M473.36 359.32s.5-1.15 6.49-5.26c.53-.35 22.54-14.17 23.09-14.54-.55.28-5.1 2.1-23.19 11.74a9.38 9.38 0 0 1-6.37 1.22z" opacity=".5"/>
        <path fill="#c7d9eb" d="M381.78 375.45l12.07 7a7.28 7.28 0 0 0 6.57 0l11.6-6.69c1.79-1 1.78-2.75 0-3.8L400 365a7.34 7.34 0 0 0-6.57 0l-11.6 6.7c-1.89 1-1.83 2.71-.05 3.75zm13.76 6l-12-6.95c-.88-.51-.89-1.32 0-1.83l1.6-.92 15.21 8.78-1.6.93a3.51 3.51 0 0 1-3.21-.03zm2.7-15.48l12.06 7c.88.51.88 1.33 0 1.83l-8.3 4.79-15.21-8.78 8.3-4.79a3.38 3.38 0 0 1 3.15-.02z"/>
        <path fill="#c7d9eb" d="M398.68 375.68l.22.07h.87a.81.81 0 0 0 .22-.07l.2-.09a.67.67 0 0 0 .36-.49.63.63 0 0 0-.37-.49.54.54 0 0 0-.19-.08 1.13 1.13 0 0 0-.22-.08h-.44a1.67 1.67 0 0 0-.85.21.7.7 0 0 0-.37.49c.01.17.2.4.57.53zM395.72 373.83l.08.13a.27.27 0 0 0 .12.12 1.57 1.57 0 0 0 1 .31 1.81 1.81 0 0 0 .85-.21.42.42 0 0 0 .15-.11.34.34 0 0 0 .12-.12l.07-.13a.22.22 0 0 0 0-.13.65.65 0 0 0-.37-.49.52.52 0 0 0-.2-.08.63.63 0 0 0-.22-.07l-.22-.05h-.65a.81.81 0 0 0-.22.07l-.2.09a.71.71 0 0 0-.36.49.17.17 0 0 0 .05.18zM393.79 372.86l.22.07h.44a1.84 1.84 0 0 0 .85-.21.42.42 0 0 0 .15-.11.34.34 0 0 0 .12-.12l.07-.13a.22.22 0 0 0 0-.13c0-.18-.13-.35-.37-.49a.52.52 0 0 0-.2-.08.63.63 0 0 0-.22-.07l-.22-.05h-.65a.81.81 0 0 0-.22.07l-.2.09a.68.68 0 0 0-.36.49c.03.31.23.54.59.67zM392 371.57a1.84 1.84 0 0 0 .85-.21.42.42 0 0 0 .15-.11.46.46 0 0 0 .12-.12l.07-.13a.32.32 0 0 0 0-.13c0-.18-.12-.35-.36-.49a1.85 1.85 0 0 0-.86-.21h-.43a.81.81 0 0 0-.22.07l-.2.09a.66.66 0 0 0-.36.49c.03.41.62.75 1.24.75zM403.55 375.68a.87.87 0 0 0 .22.08h.43a1.73 1.73 0 0 0 .85-.21c.05 0 .13-.07.15-.11a.3.3 0 0 0 .12-.13l.07-.12a.22.22 0 0 0 0-.13.17.17 0 0 0 0-.12l-.07-.13a.36.36 0 0 0-.12-.13l-.15-.11a1.87 1.87 0 0 0-.85-.21H403.78a.94.94 0 0 0-.22.07c-.05 0-.15.06-.19.09a.68.68 0 0 0-.37.49c0 .32.18.55.55.67zM401.1 374.27a1.32 1.32 0 0 0 .22.08h.9a.94.94 0 0 0 .22-.07l.19-.09a.42.42 0 0 0 .15-.11.3.3 0 0 0 .12-.13l.07-.12a.22.22 0 0 0 0-.13.42.42 0 0 0 0-.12l-.07-.13a.32.32 0 0 0-.13-.13l-.14-.11a1.88 1.88 0 0 0-.86-.21 1.65 1.65 0 0 0-.85.21.63.63 0 0 0-.36.49c-.02.22.18.45.54.57zM398.22 372l-.07.13a.21.21 0 0 0 0 .12.18.18 0 0 0 0 .13l.07.13a.34.34 0 0 0 .12.12 1.6 1.6 0 0 0 1 .31h.44a.7.7 0 0 0 .22-.07 1.08 1.08 0 0 1 .19-.08.44.44 0 0 0 .15-.12.46.46 0 0 0 .12-.12l.07-.13a.32.32 0 0 0 0-.13.63.63 0 0 0-.37-.49.47.47 0 0 0-.19-.08.71.71 0 0 0-.22-.07l-.22-.05h-.66a1.11 1.11 0 0 0-.22.07s-.14.06-.19.09a.4.4 0 0 0-.14.11.34.34 0 0 0-.1.13zM396.22 371.46l.22.07h.44a1.76 1.76 0 0 0 .85-.21.63.63 0 0 0 .36-.49c0-.18-.12-.35-.37-.49a1.78 1.78 0 0 0-.85-.21 1.62 1.62 0 0 0-.85.21.64.64 0 0 0-.36.49c0 .27.2.5.56.63zM393.34 369.2l-.08.13a.3.3 0 0 0 0 .12c0 .37.56.69 1.22.71a1.76 1.76 0 0 0 .85-.21.64.64 0 0 0 .36-.49c0-.18-.12-.35-.36-.49a2 2 0 0 0-.86-.22 1.65 1.65 0 0 0-.85.21c-.05 0-.12.07-.14.12a.23.23 0 0 0-.14.12zM406.63 374.41h.44a1.11 1.11 0 0 0 .22-.07l.19-.09a.66.66 0 0 0 .36-.49.6.6 0 0 0-.36-.49 1.88 1.88 0 0 0-.86-.21 1.62 1.62 0 0 0-.85.21.63.63 0 0 0-.36.49c0 .31.59.65 1.22.65zM403.53 372.87a.71.71 0 0 0 .22.07l.22.05h.22a1.76 1.76 0 0 0 .85-.21 1.52 1.52 0 0 0 .27-.24l.07-.12a.32.32 0 0 0 0-.13.27.27 0 0 0 0-.13l-.08-.12a.29.29 0 0 0-.12-.13l-.15-.11a1.84 1.84 0 0 0-.85-.21h-.4a1.11 1.11 0 0 0-.22.07s-.14.06-.19.09a.64.64 0 0 0-.36.49c-.01.28.15.51.52.63zM400.65 370.62l-.08.13a.27.27 0 0 0 0 .12.18.18 0 0 0 0 .13l.07.13a.27.27 0 0 0 .12.12 1.6 1.6 0 0 0 1 .31H402.22a.81.81 0 0 0 .22-.07l.2-.09a.38.38 0 0 0 .14-.11.34.34 0 0 0 .12-.12l.1-.17a.22.22 0 0 0 0-.13.63.63 0 0 0-.37-.49.54.54 0 0 0-.19-.08.71.71 0 0 0-.22-.07l-.22-.05h-.22a1.67 1.67 0 0 0-.85.21.58.58 0 0 0-.15.11.3.3 0 0 0-.13.12zM398.65 370.05a1 1 0 0 0 .22.08h.44a1.78 1.78 0 0 0 .85-.21s.12-.07.14-.11a.3.3 0 0 0 .12-.13l.07-.12a.22.22 0 0 0 0-.13c0-.18-.13-.35-.37-.49a1.81 1.81 0 0 0-.85-.21h-.44a.94.94 0 0 0-.22.07l-.19.09a.68.68 0 0 0-.37.49c.04.32.23.55.6.67z"/>
        <path fill="url(#ab)" d="M1789.66 502.92a54.87 54.87 0 0 1 8.44-6.25c1.36-.87 17.57-11 17.57-11s-15.59 7.57-17.91 8.81a18 18 0 0 1-8.08 1.8z" opacity=".5"/>
        <path fill="url(#ac)" d="M1829.37 519.16l-76.8 44.64-39.69-22.92 76.8-44.63 39.69 22.91z"/>
        <path fill="url(#ad)" d="M1829.37 519.16l-.02 6.84-76.8 44.64.02-6.84 76.8-44.64z"/>
        <path fill="url(#ae)" d="M1752.57 563.8l-.02 6.84-39.69-22.92.02-6.84 39.69 22.92z"/>
        <path fill="url(#af)" d="M1829.35 526s.5-1.15 6.5-5.25c.52-.36 22.53-14.18 23.08-14.54-.55.27-5.1 2.1-23.19 11.73a9.31 9.31 0 0 1-6.37 1.22z" opacity=".5"/>
        <path fill="#c7d9eb" d="M1737.78 542.13l12.06 7a7.34 7.34 0 0 0 6.57 0l11.6-6.7c1.79-1 1.78-2.75 0-3.79l-12-7a7.28 7.28 0 0 0-6.57 0l-11.6 6.69c-1.9 1.06-1.84 2.76-.06 3.8zm13.76 6l-12-6.94c-.88-.51-.88-1.33 0-1.83l1.6-.93 15.21 8.79-1.6.92a3.49 3.49 0 0 1-3.21-.03zm2.69-15.48l12.06 7a1 1 0 0 1 0 1.82l-8.3 4.8-15.21-8.79 8.3-4.79a3.41 3.41 0 0 1 3.15-.06z"/>
        <path fill="#c7d9eb" d="M1754.67 542.36a1.15 1.15 0 0 0 .22.07h.22a.9.9 0 0 0 .22 0 .78.78 0 0 0 .22 0h.21a.57.57 0 0 0 .22-.07l.2-.08a.68.68 0 0 0 .36-.49.63.63 0 0 0-.37-.5.84.84 0 0 0-.19-.08.71.71 0 0 0-.22-.07h-.22a.9.9 0 0 0-.22 0 1.67 1.67 0 0 0-.85.21.68.68 0 0 0-.36.49c0 .16.19.39.56.52zM1751.71 540.51l.08.13a.34.34 0 0 0 .12.13 1.65 1.65 0 0 0 1 .31 2.08 2.08 0 0 0 .85-.21s.13-.07.15-.11a.37.37 0 0 0 .12-.13l.07-.13a.21.21 0 0 0 0-.12.63.63 0 0 0-.37-.5.76.76 0 0 0-.2-.08.57.57 0 0 0-.22-.07h-.21a.94.94 0 0 0-.22 0 .72.72 0 0 0-.22 0h-.22a.47.47 0 0 0-.22.07s-.15.05-.19.08a.72.72 0 0 0-.37.49.17.17 0 0 0 .05.14zM1749.79 539.54a1 1 0 0 0 .22.07h.21a1 1 0 0 0 .22 0 2.08 2.08 0 0 0 .85-.21s.13-.07.15-.11a.37.37 0 0 0 .12-.13l.07-.13a.21.21 0 0 0 0-.12c0-.19-.13-.35-.37-.5a.76.76 0 0 0-.2-.08.57.57 0 0 0-.22-.07h-.21a1 1 0 0 0-.22 0 .72.72 0 0 0-.22 0h-.22a.63.63 0 0 0-.22.07s-.15.05-.19.08a.72.72 0 0 0-.37.49c.03.29.23.51.6.64zM1748 538.26a2.13 2.13 0 0 0 .85-.21.58.58 0 0 0 .15-.11.37.37 0 0 0 .12-.13l.07-.13a.19.19 0 0 0 0-.12c0-.19-.13-.35-.37-.5a2 2 0 0 0-.86-.21.68.68 0 0 0-.21 0h-.22a.57.57 0 0 0-.22.07l-.2.08a.7.7 0 0 0-.36.49c.03.43.62.77 1.25.77zM1759.54 542.37a1.15 1.15 0 0 0 .22.07.93.93 0 0 0 .22 0 .9.9 0 0 0 .22 0 1.78 1.78 0 0 0 .85-.21s.12-.07.14-.12a.28.28 0 0 0 .12-.12l.07-.13a.22.22 0 0 0 0-.13.17.17 0 0 0 0-.12l-.07-.13a.34.34 0 0 0-.12-.12l-.15-.12a2 2 0 0 0-.85-.21H1759.78a.47.47 0 0 0-.22.07l-.19.08a.72.72 0 0 0-.37.49c0 .33.17.57.54.7zM1757.1 541a1 1 0 0 0 .21.07h.22a.94.94 0 0 0 .22 0 .72.72 0 0 0 .22 0h.22a.63.63 0 0 0 .22-.07l.19-.08c.05 0 .13-.07.15-.12a.28.28 0 0 0 .12-.12l.07-.13a.21.21 0 0 0 0-.12.18.18 0 0 0 0-.13l-.07-.13a.34.34 0 0 0-.12-.12s-.1-.09-.15-.12a2.17 2.17 0 0 0-.85-.21 1.62 1.62 0 0 0-.85.21.66.66 0 0 0-.37.49c0 .19.2.41.57.58zM1754.21 538.7l-.07.13a.21.21 0 0 0 0 .13.23.23 0 0 0 0 .12l.07.13a.39.39 0 0 0 .13.13 1.63 1.63 0 0 0 1 .31.72.72 0 0 0 .22 0h.22a.7.7 0 0 0 .22-.07l.19-.08a.58.58 0 0 0 .15-.11.49.49 0 0 0 .12-.13l.07-.13a.27.27 0 0 0 0-.12.59.59 0 0 0-.36-.49.61.61 0 0 0-.2-.09.71.71 0 0 0-.22-.07h-.22a.9.9 0 0 0-.22 0 .78.78 0 0 0-.22 0h-.22a.58.58 0 0 0-.21.07s-.15 0-.2.08a2.26 2.26 0 0 0-.29.25zM1752.21 538.14a1.77 1.77 0 0 0 .44.11.9.9 0 0 0 .22 0 1.76 1.76 0 0 0 .85-.21.64.64 0 0 0 .36-.49c0-.19-.12-.36-.36-.5a2 2 0 0 0-.86-.21 1.62 1.62 0 0 0-.85.21.64.64 0 0 0-.36.49c0 .25.2.46.56.6zM1749.33 535.89l-.07.12a.22.22 0 0 0 0 .13c0 .36.57.69 1.22.7a1.76 1.76 0 0 0 .85-.21.66.66 0 0 0 .37-.49c0-.18-.13-.35-.37-.49a1.84 1.84 0 0 0-.85-.21 1.66 1.66 0 0 0-.86.21.38.38 0 0 0-.14.11.25.25 0 0 0-.15.13zM1762.62 541.09h.44a.63.63 0 0 0 .22-.07l.19-.08a.67.67 0 0 0 .36-.5.61.61 0 0 0-.36-.49 1.88 1.88 0 0 0-.86-.21 1.65 1.65 0 0 0-.85.21.64.64 0 0 0-.36.49c0 .32.6.65 1.22.65zM1759.52 539.56a1.77 1.77 0 0 0 .44.11h.22a1.64 1.64 0 0 0 .85-.2.44.44 0 0 0 .15-.12.46.46 0 0 0 .12-.12l.07-.13a.32.32 0 0 0 0-.13.23.23 0 0 0 0-.12l-.08-.13a.28.28 0 0 0-.12-.13.76.76 0 0 1-.14-.11 2 2 0 0 0-.86-.21h-.39a.86.86 0 0 0-.21.07l-.2.09a.66.66 0 0 0-.36.49c-.01.28.15.51.51.64zM1756.64 537.3l-.07.13a.22.22 0 0 0 0 .13.17.17 0 0 0 0 .12l.07.13a.34.34 0 0 0 .12.13 1.66 1.66 0 0 0 1 .31.78.78 0 0 0 .22 0h.21a.57.57 0 0 0 .22-.07l.2-.08a.4.4 0 0 0 .14-.11.37.37 0 0 0 .12-.13l.08-.13a.3.3 0 0 0 0-.12.63.63 0 0 0-.37-.5.84.84 0 0 0-.19-.08.71.71 0 0 0-.22-.07h-.22a.9.9 0 0 0-.22 0 1.78 1.78 0 0 0-.85.21.58.58 0 0 0-.15.11.36.36 0 0 0-.09.02zM1754.64 536.74a1.15 1.15 0 0 0 .22.07h.22a.9.9 0 0 0 .22 0 1.78 1.78 0 0 0 .85-.21s.12-.07.14-.12a.28.28 0 0 0 .12-.12l.08-.13a.3.3 0 0 0 0-.12c0-.19-.12-.36-.37-.5a1.78 1.78 0 0 0-.85-.21h-.44a.51.51 0 0 0-.22.07l-.19.08a.68.68 0 0 0-.36.49c.02.35.21.57.58.7z"/>
        <path fill="url(#ag)" d="M275.89 615.69a54.35 54.35 0 0 1 8.44-6.26c1.36-.87 38.36-22.71 38.36-22.71S286.31 606 284 607.21a18 18 0 0 1-8.08 1.8z" opacity=".5"/>
        <path fill="url(#ah)" d="M315.6 631.92l-39.43 22.92-39.69-22.92 39.43-22.91 39.69 22.91z"/>
        <path fill="url(#ai)" d="M315.6 631.92l-.02 6.85-39.43 22.91.02-6.84 39.43-22.92z"/>
        <path fill="url(#aj)" d="M276.17 654.84l-.02 6.84-39.69-22.91.02-6.85 39.69 22.92z"/>
        <path fill="url(#ak)" d="M315.58 638.76s.5-1.15 6.49-5.25c.53-.36 30.67-19.09 31.21-19.46-.54.28-13.22 7-31.31 16.66a9.33 9.33 0 0 1-6.37 1.21z" opacity=".5"/>
        <path fill="#c7d9eb" d="M269.2 633.33c0 .51.72.92 1.6.92s1.59-.4 1.59-.91v-2.52l7.7 4.44a2.48 2.48 0 0 0 2.25 0 .69.69 0 0 0 0-1.3l-7.72-4.45H279c.88 0 1.59-.4 1.58-.91a.82.82 0 0 0-.49-.65 2.3 2.3 0 0 0-1.13-.29h-8.23a2.15 2.15 0 0 0-1.13.28.83.83 0 0 0-.48.65z"/>
        <path fill="#c7d9eb" d="M264.37 638.3c6.44 3.72 16.88 3.74 23.28 0s6.37-9.72-.07-13.44-16.88-3.73-23.28 0-6.37 9.72.07 13.44zm21-12.1c5.19 3 5.22 7.86.06 10.84s-13.58 3-18.77 0-5.21-7.86-.06-10.83 13.55-3 18.73-.01z"/>
        <path fill="url(#al)" d="M1583.41 260.51a54.87 54.87 0 0 1 8.44-6.25c1.36-.87 27.58-15.61 27.58-15.61s-25.6 12.14-27.92 13.39a18 18 0 0 1-8.08 1.8z" opacity=".5"/>
        <path fill="url(#am)" d="M1627.09 279.04l-149.84 87.08-43.66-25.2 149.84-87.08 43.66 25.2z"/>
        <path fill="url(#an)" d="M1627.09 279.04l-.02 6.84-149.84 87.08.02-6.84 149.84-87.08z"/>
        <path fill="url(#ao)" d="M1477.25 366.12l-.02 6.84-43.66-25.2.02-6.84 43.66 25.2z"/>
        <path fill="url(#ap)" d="M1627.07 285.88s.5-1.15 6.49-5.25c.52-.36 34.2-20.51 34.75-20.87-.55.27-16.76 8.43-34.85 18.07a9.33 9.33 0 0 1-6.37 1.21z" opacity=".5"/>
        <path fill="#c7d9eb" d="M1492.32 342.08l-13.25-7.7 2.81-1.63a1.21 1.21 0 0 0 0-2.29 4.36 4.36 0 0 0-4 0l-4.4 2.54-10.4 6a.39.39 0 0 0 0 .73l16.56 9.62.85-6.82z" data-name="event"/>
        <path fill="url(#aq)" d="M272.5 106.43a37.62 37.62 0 0 1 5.94-4.4c1-.62 27-16 27-16l-27.24 14.43a12.71 12.71 0 0 1-5.69 1.27z" opacity=".5"/>
        <path fill="url(#ar)" d="M300.46 117.86L272.69 134l-27.95-16.13 27.77-16.14 27.95 16.13z"/>
        <path fill="url(#as)" d="M300.46 117.86l-.01 4.82-27.77 16.14.01-4.82 27.77-16.14z"/>
        <path fill="url(#at)" d="M272.69 134l-.01 4.82-27.95-16.14.01-4.81L272.69 134z"/>
        <path fill="url(#au)" d="M300.45 122.68s.35-.81 4.57-3.7c.37-.25 21.6-13.45 22-13.7-.38.19-9.31 4.94-22.05 11.73a6.57 6.57 0 0 1-4.48.85z" opacity=".5"/>
        <path fill="#c7d9eb" d="M272.59 110.17l4.91 3a1.18 1.18 0 0 1 .66.88l.21 4.87 3.34 1.93c.41.24.89.51.14.78l-3.4 1.1a1.32 1.32 0 0 1-1.35-.08l-2.59-1.49-8.23-.21a3.36 3.36 0 0 1-1.49-.38l-5.19-2.84z" data-name="funnel"/>
        <path fill="url(#av)" d="M58.08 62.83a19.78 19.78 0 0 1 3-2.21l6.21-3.89s-5.51 2.67-6.33 3.11a6.34 6.34 0 0 1-2.85.63z" opacity=".5"/>
        <path fill="url(#aw)" d="M72.11 68.57L44.98 84.34l-14.03-8.1 27.14-15.77 14.02 8.1z"/>
        <path fill="url(#ax)" d="M72.11 68.57v2.41L44.97 86.76l.01-2.42 27.13-15.77z"/>
        <path fill="url(#ay)" d="M44.98 84.34l-.01 2.42-14.02-8.1v-2.42l14.03 8.1z"/>
        <path fill="url(#az)" d="M72.11 71s.17-.41 2.29-1.86c.18-.13 8-5 8.15-5.14-.19.1-1.8.74-8.19 4.15a3.3 3.3 0 0 1-2.25.43z" opacity=".5"/>
        <path fill="#c7d9eb" d="M51.81 76.44a4.61 4.61 0 0 0 .43-.29c1.7-1.29 1.2-3.15-1.16-4.06a7.77 7.77 0 0 0-6.13.36 1.82 1.82 0 0 0-.23.15 2.53 2.53 0 0 0-1.15 1.45l.11-.08a5 5 0 0 1 1.23-.39.77.77 0 0 1 .72.17c.1.12 0 .27-.13.37a.84.84 0 0 1-.19.07 7.23 7.23 0 0 0-1.73.63c-1.16.69-2.18 1.9-.84 3.82a2.16 2.16 0 0 1 .75-.63 7 7 0 0 1 3.22-.78 8.5 8.5 0 0 1 1.13 0 7.44 7.44 0 0 0 3.97-.79z" data-name="heatmap"/>
        <path fill="url(#aA)" d="M1764.7 342.1l-61.61 35.81-17.95-10.37 61.61-35.8 17.95 10.36z"/>
        <path fill="url(#aB)" d="M1764.7 342.1l-.01 2.82-61.61 35.8.01-2.81 61.61-35.81z"/>
        <path fill="url(#aC)" d="M1703.09 377.91l-.01 2.81-17.95-10.36.01-2.82 17.95 10.37z"/>
        <path fill="url(#aD)" d="M1764.69 344.92s.21-.48 2.67-2.16c.22-.15 14.07-8.44 14.29-8.59-.22.12-6.89 3.47-14.33 7.43a3.79 3.79 0 0 1-2.62.5z" opacity=".5"/>
        <path fill="url(#aE)" d="M1746.74 334.49a21.64 21.64 0 0 1 3.47-2.58c.56-.36 11.34-6.41 11.34-6.41s-10.53 5-11.48 5.5a7.33 7.33 0 0 1-3.32.74z" opacity=".5"/>
        <g fill="#c7d9eb" data-name="dashboard" style="isolation:isolate">
          <path d="M1707.27 363.85c.19.11.19.28 0 .39l-3 1.75a.79.79 0 0 1-.67 0l-3-1.75c-.19-.11-.19-.28 0-.39l3-1.75a.73.73 0 0 1 .66 0zM1712 366.57c.19.11.19.28 0 .39l-3 1.75a.81.81 0 0 1-.68 0l-3-1.75c-.19-.11-.19-.28 0-.39l3-1.75a.72.72 0 0 1 .67 0zM1702.59 366.57c.19.11.19.28 0 .39l-3 1.75a.79.79 0 0 1-.67 0l-3-1.75c-.19-.11-.19-.28 0-.39l3-1.75a.74.74 0 0 1 .68 0zM1707.3 369.29c.19.1.19.28 0 .39l-3 1.74a.72.72 0 0 1-.67 0l-3-1.74c-.19-.11-.19-.29 0-.39l3-1.75a.74.74 0 0 1 .68 0z"/>
        </g>
        <path fill="url(#aF)" d="M187 567.15a17.33 17.33 0 0 1 2.74-2c.44-.29 12.47-7.38 12.47-7.38l-12.58 6.65a5.84 5.84 0 0 1-2.63.58z" opacity=".5"/>
        <path fill="url(#aG)" d="M199.92 572.42l-12.81 7.45-12.9-7.45 12.82-7.44 12.89 7.44z"/>
        <path fill="url(#aH)" d="M199.92 572.42v2.23l-12.82 7.44.01-2.22 12.81-7.45z"/>
        <path fill="url(#aI)" d="M187.11 579.87l-.01 2.22-12.89-7.44v-2.23l12.9 7.45z"/>
        <path fill="url(#aJ)" d="M199.92 574.65s.16-.38 2.11-1.71c.16-.12 10-6.21 10.14-6.32L202 572a3 3 0 0 1-2.07.39z" opacity=".5"/>
        <path fill="#c7d9eb" d="M188.4 569.8l.08.09 1.58 4c.05.13-.14.24-.36.21l-6.83-.9a.38.38 0 0 1-.14 0c-.12-.07-.13-.18 0-.25l5.27-3.15a.52.52 0 0 1 .4 0z" data-name="recordings"/>
        <path fill="url(#aK)" d="M1606.45 476.04l-35.28 20.5-18.23-10.52 35.28-20.51 18.23 10.53z"/>
        <path fill="url(#aL)" d="M1606.45 476.04l-.01 3.14-35.28 20.5.01-3.14 35.28-20.5z"/>
        <path fill="url(#aM)" d="M1571.17 496.54l-.01 3.14-18.23-10.52.01-3.14 18.23 10.52z"/>
        <path fill="url(#aN)" d="M1606.44 479.18s.23-.53 3-2.41c.24-.17 10.35-6.51 10.6-6.68-.25.13-2.34 1-10.64 5.39a4.29 4.29 0 0 1-2.93.56z" opacity=".5"/>
        <path fill="url(#aO)" d="M1588.21 468.58a24.89 24.89 0 0 1 3.87-2.87l8.07-5.07s-7.16 3.48-8.22 4.05a8.22 8.22 0 0 1-3.71.82z" opacity=".5"/>
        <g fill="#c7d9eb" data-name="mini menu">
          <ellipse cx="1574.99" cy="487.65" rx=".59" ry="1.03" transform="rotate(-89.84 1574.947 487.67)"/>
          <ellipse cx="1571.35" cy="485.55" rx=".59" ry="1.03" transform="rotate(-89.84 1571.31 485.573)"/>
          <ellipse cx="1567.71" cy="483.45" rx=".59" ry="1.03" transform="rotate(-89.84 1567.666 483.47)"/>
        </g>
        <path fill="url(#aP)" d="M626.62 19.91l-35.28 20.5-18.23-10.52 35.28-20.5 18.23 10.52z"/>
        <path fill="url(#aQ)" d="M626.62 19.91l-.01 3.14-35.28 20.51.01-3.15 35.28-20.5z"/>
        <path fill="url(#aR)" d="M591.34 40.41l-.01 3.15-18.23-10.53.01-3.14 18.23 10.52z"/>
        <path fill="url(#aS)" d="M626.61 23.06s.23-.53 3-2.42c.24-.16 10.36-6.51 10.61-6.68-.25.13-2.34 1-10.65 5.39a4.29 4.29 0 0 1-2.93.56z" opacity=".5"/>
        <g fill="#c7d9eb" data-name="composite event" style="isolation:isolate">
          <path d="M593.26 28.64a1.35 1.35 0 0 0-.24-.08l-6.73-1.19a.93.93 0 0 0-.58.09c-.15.09-.21.21-.15.34l2 3.89a.56.56 0 0 0 .39.23l6.72 1.18a.86.86 0 0 0 .58-.08c.16-.09.21-.22.15-.34l-2-3.89a.4.4 0 0 0-.14-.15zM587 28.2l5.37.95 1.63 3.11-5.38-.94L587 28.2"/>
          <path d="M595.3 27.47a.85.85 0 0 0-.24-.09l-6.72-1.18a.94.94 0 0 0-.58.07c-.16.09-.21.21-.17.32a.5.5 0 0 0 .41.25l6.41 1.16 1.94 3.72a.55.55 0 0 0 .43.24.92.92 0 0 0 .55-.1c.16-.09.2-.22.14-.34l-2-3.89a.27.27 0 0 0-.17-.16z"/>
          <path d="M597.49 26.43a.38.38 0 0 0-.14-.14.92.92 0 0 0-.25-.09l-6.72-1.2a.94.94 0 0 0-.58.07c-.15.09-.22.21-.17.33a.5.5 0 0 0 .41.24l6.42 1.14 1.94 3.72a.58.58 0 0 0 .43.23.81.81 0 0 0 .54-.09c.16-.1.21-.22.15-.34z"/>
        </g>
        <path fill="url(#aT)" d="M129.48 290.87a54.35 54.35 0 0 1 8.44-6.26c1.36-.87 38.36-22.71 38.36-22.71s-36.38 19.25-38.7 20.49a18 18 0 0 1-8.07 1.8z" opacity=".5"/>
        <path fill="url(#aU)" d="M169.19 307.11l-39.43 22.91-39.69-22.91 39.43-22.92 39.69 22.92z"/>
        <path fill="url(#aV)" d="M169.19 307.11l-.01 6.84-39.44 22.91.02-6.84 39.43-22.91z"/>
        <path fill="url(#aW)" d="M129.76 330.02l-.02 6.84-39.69-22.91.02-6.84 39.69 22.91z"/>
        <path fill="url(#aX)" d="M169.18 313.94s.49-1.15 6.49-5.25c.52-.36 30.66-19.09 31.21-19.46-.55.28-13.23 7-31.32 16.66a9.33 9.33 0 0 1-6.37 1.21z" opacity=".5"/>
        <g fill="#c7d9eb" data-name="group">
          <path d="M135.14 304.11a.59.59 0 0 0 0-1.12l-8.45-4.91a2.1 2.1 0 0 0-1.92 0 .59.59 0 0 0 0 1.11l8.44 4.91a2.12 2.12 0 0 0 1.93.01zM135 317.48a.58.58 0 0 0 0-1.11l-19.92-11.58a2.1 2.1 0 0 0-1.92 0c-.54.31-.55.81 0 1.11l19.92 11.58a2.12 2.12 0 0 0 1.92 0zM135.82 311.23a.59.59 0 0 0 0-1.12l-14.93-8.68a2.12 2.12 0 0 0-1.93 0c-.53.31-.54.8 0 1.11l14.92 8.68a2.14 2.14 0 0 0 1.94.01z"/>
        </g>
        <path fill="url(#aY)" d="M1743.9 29.54a54 54 0 0 1 8.44-6.25c1.36-.88 38.36-22.71 38.36-22.71s-36.38 19.24-38.7 20.48a18 18 0 0 1-8.07 1.8z" opacity=".5"/>
        <path fill="url(#aZ)" d="M1856.49 87.85l-39.43 22.92-112.56-64.99 39.43-22.92 112.56 64.99z"/>
        <path fill="url(#ba)" d="M1856.49 87.85l-.02 6.84-39.43 22.92.02-6.84 39.43-22.92z"/>
        <path fill="url(#bb)" d="M1817.06 110.77l-.02 6.84-112.56-64.99.02-6.84 112.56 64.99z"/>
        <path fill="url(#bc)" d="M1856.47 94.69s.38-1.32 6.49-5.25c19.49-12.56 44.64-27.25 57.54-34.72C1894.3 69 1881 77 1862.86 86.64a9.33 9.33 0 0 1-6.37 1.21z" opacity=".5"/>
        <path fill="#c7d9eb" d="M1789.22 64.18c1.84-1.06 1.85-2.78 0-3.84a7.31 7.31 0 0 0-6.63 0l-4.59-2.69a2.2 2.2 0 0 0-2 0 .61.61 0 0 0 0 1.16l.32.18-6.76 3.91c-3.65 2.11-4 5.48-.85 7.82l.26.19-1.68 1a.61.61 0 0 0 0 1.16 2.2 2.2 0 0 0 2 0l1.68-1 .33.15a16.1 16.1 0 0 0 13.5-.47l6.77-3.9.32.19a2.23 2.23 0 0 0 2 0 .61.61 0 0 0 0-1.16zm-10.94-4l11.25 6.54-6.76 3.9a11.52 11.52 0 0 1-10.42 0l-.86-.5c-2.86-1.66-2.84-4.37 0-6l6.76-3.91m6.2 1.28a3.16 3.16 0 0 1 2.87 0 .88.88 0 0 1 0 1.67l-2.87-1.67" data-name="ring"/>
      </g>
      <path fill="url(#bd)" d="M0 0h1921.09v709H0z"/>
    </g>
  </g>
</svg>
